# xmcd CD database file
#
# Track frame offsets:
#	150
#	24842
#	43312
#
# Disc length: 905 seconds
#
# Revision: 8
# Processed by: cddbd v1.5.1PL0 Copyright (c) Steve Scherf et al.
# Submitted via: CDex 1.51
#
DISCID=1c038703
DTITLE=ZNX - Don't Look Back
DYEAR=1995
DGENRE=JPop
TTITLE0=Don't Look Back
TTITLE1=JAST LIKE A SHELTER
TTITLE2=Don't Look Back (オリジナルカラオケ)
EXTD=YEAR: 1995
EXTT0=
EXTT1=
EXTT2=
PLAYORDER=
